<svg width="301" height="36" viewBox="0 0 301 36" fill="none" xmlns="http://www.w3.org/2000/svg">
<g clip-path="url(#clip0_3_3011)">
<path d="M27.6625 0H49.1834L36.6875 16.5176H15.1667L27.6625 0Z" fill="#086EAB"/>
<path d="M13.2122 19.4824H35.9667L22.7543 36.0001H0L13.2122 19.4824Z" fill="#F2913D"/>
<path d="M55.2457 0H78L64.7877 16.5176H42.0333L55.2457 0Z" fill="#BF1C54"/>
<path d="M40.729 19.4824H63.4833L50.271 36.0001H27.5167L40.729 19.4824Z" fill="#BDD130"/>
</g>
<path d="M82.38 10.498H84.151V24.459H88.36V10.498H90.131V24.482L91.166 24.505L91.074 29.197H89.671L89.556 26H82.38V10.498ZM98.8417 17.145V18.64H94.9547V24.459H99.3707V26H93.1837V10.498H99.0947V12.039H94.9547V17.145H98.8417ZM101.315 10.498H103.086V17.145H107.433V10.498H109.204V26H107.433V18.755H103.086V26H101.315V10.498ZM113.621 26V12.085H110.792V10.498H118.221V12.085H115.392V26H113.621ZM119.935 26V10.728C120.701 10.5287 121.56 10.429 122.511 10.429C124.044 10.429 125.194 10.8047 125.961 11.556C126.712 12.3073 127.088 13.3807 127.088 14.776C127.088 16.064 126.773 17.122 126.145 17.95C125.746 18.502 125.217 18.9313 124.558 19.238C123.898 19.5293 123.208 19.675 122.488 19.675C122.135 19.675 121.874 19.6673 121.706 19.652V26H119.935ZM121.706 11.993V18.18C121.982 18.2107 122.219 18.226 122.419 18.226C123.308 18.226 124.013 17.9423 124.535 17.375C125.056 16.7923 125.317 15.9643 125.317 14.891C125.317 14.0017 125.11 13.281 124.696 12.729C124.282 12.1617 123.615 11.878 122.695 11.878C122.296 11.878 121.966 11.9163 121.706 11.993ZM132.76 10.498H139.292V12.039H134.508V16.685C134.876 16.6237 135.267 16.593 135.681 16.593C137.046 16.593 138.15 16.9993 138.993 17.812C139.867 18.64 140.304 19.767 140.304 21.193C140.304 22.5883 139.929 23.7077 139.177 24.551C138.288 25.5783 136.916 26.092 135.06 26.092C134.094 26.092 133.328 26.0383 132.76 25.931V10.498ZM134.508 18.134V24.597C134.8 24.643 135.099 24.666 135.405 24.666C136.402 24.666 137.192 24.3133 137.774 23.608C138.234 22.9793 138.464 22.2127 138.464 21.308C138.464 20.388 138.196 19.6213 137.659 19.008C137.077 18.3793 136.318 18.065 135.382 18.065C135.122 18.065 134.83 18.088 134.508 18.134ZM142.351 10.498H144.122V26H142.351V10.498ZM146.933 26V10.728C147.699 10.5287 148.558 10.429 149.509 10.429C151.042 10.429 152.192 10.8047 152.959 11.556C153.71 12.3073 154.086 13.3807 154.086 14.776C154.086 16.064 153.771 17.122 153.143 17.95C152.744 18.502 152.215 18.9313 151.556 19.238C150.896 19.5293 150.206 19.675 149.486 19.675C149.133 19.675 148.872 19.6673 148.704 19.652V26H146.933ZM148.704 11.993V18.18C148.98 18.2107 149.217 18.226 149.417 18.226C150.306 18.226 151.011 17.9423 151.533 17.375C152.054 16.7923 152.315 15.9643 152.315 14.891C152.315 14.0017 152.108 13.281 151.694 12.729C151.28 12.1617 150.613 11.878 149.693 11.878C149.294 11.878 148.964 11.9163 148.704 11.993ZM154.679 10.498H156.634L159.992 17.559H160.314V10.498H161.97V17.559H162.315L165.65 10.498H167.605L163.626 17.72C164.531 17.8733 165.213 18.318 165.673 19.054C166.133 19.7747 166.478 20.7023 166.708 21.837C167.168 24.0143 167.513 25.402 167.743 26H165.995C165.842 25.6627 165.543 24.4207 165.098 22.274C164.975 21.7527 164.853 21.3233 164.73 20.986C164.623 20.6487 164.462 20.296 164.247 19.928C164.048 19.56 163.772 19.2917 163.419 19.123C163.082 18.939 162.683 18.847 162.223 18.847H161.97V26H160.314V18.847H160.084C159.609 18.847 159.195 18.939 158.842 19.123C158.505 19.2917 158.229 19.56 158.014 19.928C157.799 20.296 157.631 20.6487 157.508 20.986C157.401 21.3233 157.286 21.7527 157.163 22.274C157.117 22.458 157.04 22.8413 156.933 23.424C156.826 23.9913 156.718 24.4973 156.611 24.942C156.504 25.3867 156.389 25.7393 156.266 26H154.564C154.763 25.448 155.101 24.0603 155.576 21.837C156.082 19.3683 157.109 17.996 158.658 17.72L154.679 10.498ZM172.782 26.184H172.759C171.44 26.184 170.39 25.5017 169.608 24.137C168.841 22.757 168.458 20.7867 168.458 18.226C168.458 15.7113 168.872 13.764 169.7 12.384C170.528 11.004 171.632 10.314 173.012 10.314C174.33 10.314 175.365 11.004 176.117 12.384C176.868 13.7487 177.244 15.6653 177.244 18.134C177.244 20.8787 176.83 22.9103 176.002 24.229C175.189 25.5323 174.116 26.184 172.782 26.184ZM172.874 24.62H172.897C173.372 24.62 173.778 24.436 174.116 24.068C174.453 23.6847 174.714 23.171 174.898 22.527C175.082 21.883 175.212 21.2083 175.289 20.503C175.365 19.7977 175.404 19.031 175.404 18.203C175.404 17.421 175.365 16.685 175.289 15.995C175.212 15.2897 175.082 14.615 174.898 13.971C174.714 13.327 174.445 12.821 174.093 12.453C173.755 12.0697 173.349 11.878 172.874 11.878C172.245 11.878 171.724 12.2153 171.31 12.89C170.911 13.5647 170.643 14.3543 170.505 15.259C170.367 16.1483 170.298 17.1373 170.298 18.226C170.298 19.0387 170.336 19.8053 170.413 20.526C170.505 21.2313 170.643 21.906 170.827 22.55C171.011 23.1787 171.279 23.6847 171.632 24.068C171.984 24.436 172.398 24.62 172.874 24.62ZM179.366 25.931V10.728C180.164 10.5287 181.03 10.429 181.965 10.429C183.483 10.429 184.626 10.7817 185.392 11.487C186.067 12.131 186.404 13.0203 186.404 14.155C186.404 14.9523 186.19 15.6577 185.76 16.271C185.346 16.869 184.764 17.3137 184.012 17.605V17.674C184.917 17.904 185.622 18.3717 186.128 19.077C186.634 19.767 186.887 20.618 186.887 21.63C186.887 22.8567 186.519 23.8763 185.783 24.689C184.955 25.6243 183.591 26.092 181.689 26.092C180.708 26.092 179.934 26.0383 179.366 25.931ZM181.137 11.924V17.099H181.942C182.678 17.099 183.307 16.8383 183.828 16.317C184.365 15.7957 184.633 15.144 184.633 14.362C184.633 12.66 183.782 11.809 182.08 11.809C181.682 11.809 181.367 11.8473 181.137 11.924ZM181.137 18.433V24.62C181.337 24.666 181.636 24.689 182.034 24.689C182.954 24.689 183.683 24.4207 184.219 23.884C184.771 23.3473 185.047 22.5883 185.047 21.607C185.047 20.595 184.748 19.8207 184.15 19.284C183.552 18.732 182.809 18.4483 181.919 18.433H181.137ZM188.935 10.498H190.545V16.041C190.545 18.341 190.476 20.71 190.338 23.148H190.384C190.598 22.4427 191.265 20.641 192.385 17.743L195.168 10.498H196.824V26H195.237V20.641C195.237 17.605 195.298 15.167 195.421 13.327H195.375C195.129 14.1857 194.508 15.9183 193.512 18.525L190.614 26H188.935V10.498ZM206.918 26H205.078L203.675 22.274C203.291 21.2467 202.969 20.342 202.709 19.56H202.64L201.72 22.32L200.386 26H198.569L201.743 18.088L198.661 10.498H200.501L201.904 14.086C202.226 14.9293 202.525 15.7497 202.801 16.547H202.847C203.092 15.8263 203.376 14.983 203.698 14.017L204.963 10.498H206.757L203.721 18.042L206.918 26ZM214.044 26V12.085H211.215V10.498H218.644V12.085H215.815V26H214.044ZM226.016 17.145V18.64H222.129V24.459H226.545V26H220.358V10.498H226.269V12.039H222.129V17.145H226.016ZM235.802 26H233.962L232.559 22.274C232.176 21.2467 231.854 20.342 231.593 19.56H231.524L230.604 22.32L229.27 26H227.453L230.627 18.088L227.545 10.498H229.385L230.788 14.086C231.11 14.9293 231.409 15.7497 231.685 16.547H231.731C231.977 15.8263 232.26 14.983 232.582 14.017L233.847 10.498H235.641L232.605 18.042L235.802 26ZM237.495 10.498H239.266V17.145H243.613V10.498H245.384V26H243.613V18.755H239.266V26H237.495V10.498ZM251.822 26.184H251.799C250.48 26.184 249.43 25.5017 248.648 24.137C247.881 22.757 247.498 20.7867 247.498 18.226C247.498 15.7113 247.912 13.764 248.74 12.384C249.568 11.004 250.672 10.314 252.052 10.314C253.37 10.314 254.405 11.004 255.157 12.384C255.908 13.7487 256.284 15.6653 256.284 18.134C256.284 20.8787 255.87 22.9103 255.042 24.229C254.229 25.5323 253.156 26.184 251.822 26.184ZM251.914 24.62H251.937C252.412 24.62 252.818 24.436 253.156 24.068C253.493 23.6847 253.754 23.171 253.938 22.527C254.122 21.883 254.252 21.2083 254.329 20.503C254.405 19.7977 254.444 19.031 254.444 18.203C254.444 17.421 254.405 16.685 254.329 15.995C254.252 15.2897 254.122 14.615 253.938 13.971C253.754 13.327 253.485 12.821 253.133 12.453C252.795 12.0697 252.389 11.878 251.914 11.878C251.285 11.878 250.764 12.2153 250.35 12.89C249.951 13.5647 249.683 14.3543 249.545 15.259C249.407 16.1483 249.338 17.1373 249.338 18.226C249.338 19.0387 249.376 19.8053 249.453 20.526C249.545 21.2313 249.683 21.906 249.867 22.55C250.051 23.1787 250.319 23.6847 250.672 24.068C251.024 24.436 251.438 24.62 251.914 24.62ZM258.777 10.498H265.447V26H263.676V12.039H260.41V17.329C260.41 19.7363 260.295 21.5993 260.065 22.918C259.835 24.2213 259.321 25.149 258.524 25.701C258.11 26.023 257.642 26.184 257.121 26.184L256.753 24.689C257.06 24.643 257.336 24.5127 257.581 24.298C258.041 23.8993 258.355 23.1787 258.524 22.136C258.693 21.0933 258.777 19.5753 258.777 17.582V10.498ZM271.902 26.184H271.879C270.56 26.184 269.51 25.5017 268.728 24.137C267.961 22.757 267.578 20.7867 267.578 18.226C267.578 15.7113 267.992 13.764 268.82 12.384C269.648 11.004 270.752 10.314 272.132 10.314C273.45 10.314 274.485 11.004 275.237 12.384C275.988 13.7487 276.364 15.6653 276.364 18.134C276.364 20.8787 275.95 22.9103 275.122 24.229C274.309 25.5323 273.236 26.184 271.902 26.184ZM271.994 24.62H272.017C272.492 24.62 272.898 24.436 273.236 24.068C273.573 23.6847 273.834 23.171 274.018 22.527C274.202 21.883 274.332 21.2083 274.409 20.503C274.485 19.7977 274.524 19.031 274.524 18.203C274.524 17.421 274.485 16.685 274.409 15.995C274.332 15.2897 274.202 14.615 274.018 13.971C273.834 13.327 273.565 12.821 273.213 12.453C272.875 12.0697 272.469 11.878 271.994 11.878C271.365 11.878 270.844 12.2153 270.43 12.89C270.031 13.5647 269.763 14.3543 269.625 15.259C269.487 16.1483 269.418 17.1373 269.418 18.226C269.418 19.0387 269.456 19.8053 269.533 20.526C269.625 21.2313 269.763 21.906 269.947 22.55C270.131 23.1787 270.399 23.6847 270.752 24.068C271.104 24.436 271.518 24.62 271.994 24.62ZM278.486 10.498H284.558V12.039H280.257V26H278.486V10.498ZM286.28 10.498H288.051V26H286.28V10.498ZM290.862 10.498H292.472V16.041C292.472 18.341 292.403 20.71 292.265 23.148H292.311C292.526 22.4427 293.193 20.641 294.312 17.743L297.095 10.498H298.751V26H297.164V20.641C297.164 17.605 297.226 15.167 297.348 13.327H297.302C297.057 14.1857 296.436 15.9183 295.439 18.525L292.541 26H290.862V10.498ZM292.219 7.692H293.507C293.661 8.55067 294.098 8.98 294.818 8.98C295.57 8.98 295.999 8.55067 296.106 7.692H297.417C297.218 9.17933 296.344 9.923 294.795 9.923C293.216 9.923 292.357 9.17933 292.219 7.692Z" fill="#272727"/>
<defs>
<clipPath id="clip0_3_3011">
<rect width="78" height="36" fill="white"/>
</clipPath>
</defs>
</svg>
